<?xml version="1.0" encoding="utf-8"?>
<!-- Generator: Adobe Illustrator 18.0.0, SVG Export Plug-In . SVG Version: 6.00 Build 0)  -->
<!DOCTYPE svg PUBLIC "-//W3C//DTD SVG 1.1//EN" "http://www.w3.org/Graphics/SVG/1.1/DTD/svg11.dtd">
<svg version="1.1" id="Layer_1" xmlns="http://www.w3.org/2000/svg" xmlns:xlink="http://www.w3.org/1999/xlink" x="0px" y="0px"
	 viewBox="0 0 50 50" enable-background="new 0 0 50 50" xml:space="preserve">
<path fill="#FFFFFF" d="M0,0v50h50V0H0z M29,37.2c-0.6,0.1-0.9-0.3-0.9-0.6c0-0.4,0-1.8,0-3.4c0-1.2-0.4-1.9-0.8-2.3
	c2.8-0.3,5.7-1.4,5.7-6.2c0-1.4-0.5-2.5-1.3-3.4c0.1-0.3,0.6-1.6-0.1-3.3c0,0-1-0.3-3.4,1.3c-1-0.3-2.1-0.4-3.1-0.4
	c-1.1,0-2.1,0.1-3.1,0.4c-2.4-1.6-3.4-1.3-3.4-1.3c-0.7,1.7-0.3,3-0.1,3.3c-0.8,0.9-1.3,2-1.3,3.4c0,4.8,2.9,5.9,5.7,6.2
	c-0.4,0.3-0.7,0.9-0.8,1.7c-0.7,0.3-2.5,0.9-3.6-1c0,0-0.7-1.2-1.9-1.3c0,0-1.2,0-0.1,0.8c0,0,0.8,0.4,1.4,1.8c0,0,0.7,2.4,4.2,1.7
	c0,1,0,1.8,0,2.1c0,0.3-0.2,0.7-0.9,0.6c-5-1.7-8.5-6.3-8.5-11.9c0-6.9,5.6-12.5,12.5-12.5c6.9,0,12.5,5.6,12.5,12.5
	C37.5,30.8,33.9,35.5,29,37.2z"/>
</svg>
