<?xml version="1.0" encoding="utf-8"?>
<!-- Generator: Adobe Illustrator 18.0.0, SVG Export Plug-In . SVG Version: 6.00 Build 0)  -->
<!DOCTYPE svg PUBLIC "-//W3C//DTD SVG 1.1//EN" "http://www.w3.org/Graphics/SVG/1.1/DTD/svg11.dtd">
<svg version="1.1" id="Layer_1" xmlns="http://www.w3.org/2000/svg" xmlns:xlink="http://www.w3.org/1999/xlink" x="0px" y="0px"
	 viewBox="0 0 770 307.2" enable-background="new 0 0 770 307.2" xml:space="preserve">
<path fill="#FFFFFF" d="M0.4,0h27.2v96.1h57.5v24.2H0.4V0z"/>
<path fill="#FFFFFF" d="M180.8,111.1c-1,0.6-2.4,1.6-4.3,3c-1.9,1.4-4.4,2.7-7.5,4.1c-3.1,1.3-6.7,2.5-10.9,3.5
	c-4.2,1-9,1.5-14.4,1.5c-7.2,0-13.7-1.1-19.5-3.3c-5.8-2.2-10.7-5.3-14.7-9.3c-4-4-7.1-8.7-9.2-14.3c-2.1-5.6-3.2-11.7-3.2-18.5
	c0-5.9,1-11.6,3-17c2-5.5,4.8-10.2,8.6-14.3c3.7-4.1,8.3-7.4,13.7-9.8c5.4-2.5,11.5-3.7,18.4-3.7c6.9,0,12.9,1.2,18,3.6
	c5.2,2.4,9.5,5.7,13.1,10c3.5,4.3,6.2,9.4,8,15.3c1.8,6,2.7,12.5,2.7,19.6v4.3h-60.2c0.1,4.6,2.1,8.6,6,12c3.9,3.4,9.3,5.1,16.1,5.1
	c6.7,0,12.2-1,16.4-3c4.2-2,7.3-3.7,9.2-5.1L180.8,111.1z M158.1,69.1c0-1.8-0.4-3.6-1.1-5.5c-0.7-1.9-1.8-3.6-3.2-5.1
	c-1.4-1.6-3.2-2.9-5.4-3.9c-2.2-1-4.8-1.5-7.8-1.5c-3,0-5.7,0.5-7.9,1.5c-2.3,1-4.2,2.3-5.7,3.9c-1.5,1.6-2.6,3.3-3.4,5.1
	c-0.8,1.9-1.2,3.7-1.2,5.5H158.1z"/>
<path fill="#FFFFFF" d="M203.7,56.1h-13.3V35.7h13.3V10.1h26v25.6h21.8v20.4h-21.8v33.4c0,4.1,0.8,7.2,2.4,9.5
	c1.6,2.2,4.2,3.3,7.7,3.3c2.6,0,4.9-0.5,6.9-1.4c1.9-0.9,3.7-2,5.4-3.2l10.5,15.9c-8.2,6.5-17.1,9.7-26.7,9.7
	c-6,0-11.1-0.9-15.1-2.6c-4.1-1.7-7.4-4.1-9.9-7.2c-2.5-3.1-4.3-6.8-5.4-11.1c-1.1-4.3-1.6-9.1-1.6-14.4V56.1z"/>
<path fill="#FFFFFF" d="M276.9,0.2H305l-13.2,41.3h-19.3L276.9,0.2z"/>
<path fill="#FFFFFF" d="M314.9,94.1c2.8,2.5,6.4,4.6,10.9,6.3c4.5,1.7,8.9,2.5,13.1,2.5c3.8,0,7-0.5,9.6-1.4c2.5-1,3.8-2.8,3.8-5.6
	c0-1.1-0.3-2.1-0.8-3c-0.5-0.9-1.5-1.7-3-2.5c-1.4-0.8-3.5-1.6-6-2.4c-2.6-0.8-5.9-1.8-9.8-2.9c-3.2-0.8-6.5-2-9.6-3.3
	c-3.2-1.4-6-3.1-8.5-5.1c-2.5-2-4.4-4.5-6-7.4c-1.5-2.9-2.3-6.3-2.3-10.1c0-4,0.9-7.5,2.7-10.7c1.8-3.2,4.3-6,7.5-8.3
	c3.2-2.3,7-4.1,11.4-5.4c4.4-1.3,9.1-1.9,14.2-1.9c7.2,0,13.5,0.8,18.9,2.4c5.4,1.6,10.4,4,15,7.1l-11,17.1
	c-2.8-1.8-5.9-3.4-9.5-4.9c-3.5-1.4-7.5-2.2-12-2.2c-4,0-6.9,0.6-8.7,1.7c-1.8,1.1-2.7,2.7-2.7,4.6c0,2.8,1.9,4.8,5.6,6.1
	c3.7,1.3,8.8,2.8,15.1,4.5c8.7,2.4,14.9,5.7,18.8,9.9c3.9,4.2,5.9,9.8,5.9,16.8c0,4.7-1.1,8.7-3.2,12.1c-2.1,3.4-4.9,6.2-8.5,8.4
	c-3.5,2.2-7.6,3.9-12.1,5c-4.5,1.1-9.1,1.6-13.8,1.6c-7.6,0-14.7-1-21.5-3.1c-6.7-2-12.2-5.2-16.4-9.4L314.9,94.1z"/>
<path fill="#FFFFFF" d="M61.3,262.6c-2.6,3.1-6,5.7-10.2,7.8c-4.1,2.1-8.9,3.2-14.2,3.2c-5.2,0-10-1-14.5-3.1c-4.5-2-8.4-5-11.7-8.7
	c-3.3-3.8-5.9-8.4-7.8-13.7C1,242.8,0,236.7,0,230c0-7.6,1.4-14.2,4.1-19.9c2.7-5.7,6.2-10.4,10.5-14.2c4.3-3.7,9-6.5,14.2-8.4
	c5.2-1.9,10.4-2.8,15.4-2.8c4.1,0,7.3,0.3,9.6,0.8c2.3,0.5,4.6,1.2,7,2.1v-36.8h25.8v120.3H62.4L61.3,262.6z M60.8,209.8
	c-1.8-1.1-3.8-1.9-5.9-2.3c-2.1-0.5-4.7-0.7-7.8-0.7c-6.6,0-11.8,2.2-15.4,6.7c-3.7,4.4-5.5,10.2-5.5,17.1c0,6.1,1.5,11.2,4.5,15.1
	c3,3.9,7.5,5.9,13.5,5.9c2.9,0,5.4-0.5,7.5-1.5c2.1-1,3.8-2.4,5.2-4.1c1.4-1.7,2.4-3.7,3-6c0.6-2.3,0.9-4.6,0.9-7V209.8z"/>
<path fill="#FFFFFF" d="M185.6,261.9c-1,0.6-2.4,1.6-4.3,3c-1.9,1.4-4.4,2.7-7.5,4.1c-3.1,1.3-6.7,2.5-10.9,3.5
	c-4.2,1-9,1.5-14.4,1.5c-7.2,0-13.7-1.1-19.5-3.3c-5.8-2.2-10.7-5.3-14.7-9.3c-4-4-7.1-8.7-9.2-14.3c-2.1-5.6-3.2-11.7-3.2-18.5
	c0-5.9,1-11.6,3-17c2-5.5,4.8-10.2,8.6-14.3c3.7-4.1,8.3-7.4,13.7-9.8c5.4-2.5,11.5-3.7,18.4-3.7c6.9,0,12.9,1.2,18,3.6
	c5.2,2.4,9.5,5.7,13.1,10c3.5,4.3,6.2,9.4,8,15.3c1.8,6,2.7,12.5,2.7,19.6v4.3h-60.2c0.1,4.6,2.1,8.6,6,12c3.9,3.4,9.3,5.1,16.1,5.1
	c6.7,0,12.2-1,16.4-3c4.2-2,7.3-3.7,9.2-5.1L185.6,261.9z M162.8,219.9c0-1.8-0.4-3.6-1.1-5.5c-0.7-1.9-1.8-3.6-3.2-5.1
	c-1.4-1.6-3.2-2.9-5.4-3.9c-2.2-1-4.7-1.5-7.8-1.5c-3,0-5.7,0.5-7.9,1.5c-2.3,1-4.2,2.3-5.7,3.9c-1.5,1.6-2.6,3.3-3.4,5.1
	c-0.8,1.9-1.2,3.7-1.2,5.5H162.8z"/>
<path fill="#FFFFFF" d="M189,186.5h28.9l20,55.5l19.3-55.5h28.3l-36.2,84.6h-24.5L189,186.5z"/>
<path fill="#FFFFFF" d="M371.3,261.9c-1,0.6-2.4,1.6-4.3,3c-1.9,1.4-4.4,2.7-7.5,4.1c-3.1,1.3-6.7,2.5-10.9,3.5
	c-4.2,1-9,1.5-14.4,1.5c-7.2,0-13.7-1.1-19.5-3.3c-5.8-2.2-10.7-5.3-14.7-9.3c-4-4-7.1-8.7-9.2-14.3c-2.1-5.6-3.2-11.7-3.2-18.5
	c0-5.9,1-11.6,3-17c2-5.5,4.8-10.2,8.6-14.3c3.7-4.1,8.3-7.4,13.7-9.8c5.4-2.5,11.5-3.7,18.4-3.7c6.9,0,12.9,1.2,18,3.6
	c5.2,2.4,9.5,5.7,13.1,10c3.5,4.3,6.2,9.4,8,15.3c1.8,6,2.7,12.5,2.7,19.6v4.3h-60.2c0.1,4.6,2.1,8.6,6,12c3.9,3.4,9.3,5.1,16.1,5.1
	c6.7,0,12.2-1,16.4-3c4.2-2,7.3-3.7,9.2-5.1L371.3,261.9z M348.6,219.9c0-1.8-0.4-3.6-1.1-5.5c-0.7-1.9-1.8-3.6-3.2-5.1
	c-1.4-1.6-3.2-2.9-5.4-3.9c-2.2-1-4.8-1.5-7.8-1.5c-3,0-5.7,0.5-7.9,1.5c-2.3,1-4.2,2.3-5.7,3.9c-1.5,1.6-2.6,3.3-3.4,5.1
	c-0.8,1.9-1.2,3.7-1.2,5.5H348.6z"/>
<path fill="#FFFFFF" d="M387.9,150.8h26v120.3h-26V150.8z"/>
<path fill="#FFFFFF" d="M429.2,228.7c0-6.2,1.1-12.1,3.3-17.6c2.2-5.5,5.3-10.2,9.3-14.3c4-4.1,8.7-7.3,14.3-9.6
	c5.6-2.3,11.8-3.5,18.5-3.5c6.7,0,12.9,1.2,18.4,3.5c5.5,2.3,10.3,5.6,14.2,9.6c4,4.1,7.1,8.9,9.3,14.3c2.2,5.5,3.3,11.3,3.3,17.6
	c0,6.3-1.1,12.1-3.3,17.6c-2.2,5.5-5.3,10.3-9.3,14.3c-4,4.1-8.7,7.3-14.2,9.7c-5.5,2.4-11.7,3.6-18.4,3.6c-6.7,0-12.9-1.2-18.5-3.6
	c-5.6-2.4-10.4-5.6-14.3-9.7c-4-4.1-7.1-8.9-9.3-14.3C430.3,240.8,429.2,235,429.2,228.7z M474.6,251.4c3.2,0,6.1-0.6,8.7-1.9
	s4.7-3,6.4-5.1c1.7-2.2,3-4.6,3.9-7.3c0.8-2.7,1.3-5.5,1.3-8.4c0-2.9-0.4-5.7-1.3-8.4c-0.8-2.7-2.1-5.1-3.9-7.2
	c-1.7-2.1-3.9-3.8-6.4-5s-5.4-1.9-8.7-1.9c-3.2,0-6.2,0.6-8.7,1.9c-2.6,1.3-4.7,2.9-6.4,5c-1.7,2.1-3,4.5-3.9,7.2
	c-0.9,2.7-1.4,5.5-1.4,8.4c0,2.9,0.5,5.7,1.4,8.4c0.9,2.7,2.2,5.1,3.9,7.3c1.7,2.2,3.8,3.9,6.4,5.1
	C468.5,250.8,471.4,251.4,474.6,251.4z"/>
<path fill="#FFFFFF" d="M535.4,186.5h24.9c0.2,1.6,0.4,3.1,0.5,4.6c0.1,1.5,0.2,3,0.4,4.6c2.8-3.5,6.3-6.2,10.6-8
	c4.3-1.9,8.8-2.8,13.5-2.8c6.1,0,11.5,1.2,16.2,3.6c4.7,2.4,8.6,5.6,11.7,9.6c3.1,4,5.5,8.7,7,13.9c1.6,5.2,2.3,10.6,2.3,16.1
	c0,7.8-1.3,14.6-4,20.4c-2.6,5.8-6.1,10.5-10.3,14.2c-4.2,3.7-9,6.5-14.2,8.3c-5.3,1.8-10.5,2.7-15.7,2.7c-4.1,0-7.5-0.4-10.1-1.1
	c-2.6-0.7-5-1.4-7.2-2.2v36.6h-25.8V186.5z M561.2,248.7c3.4,2.3,8.4,3.4,15,3.4c6.4,0,11.4-2.1,15.1-6.4c3.7-4.3,5.5-9.9,5.5-17
	c0-2.8-0.3-5.5-1-8.1c-0.7-2.6-1.7-5-3.1-6.9c-1.4-2-3.2-3.6-5.4-4.8c-2.2-1.2-5-1.8-8.2-1.8c-2.9,0-5.4,0.5-7.7,1.6
	c-2.2,1.1-4.1,2.5-5.6,4.3c-1.5,1.8-2.6,3.8-3.4,6.1c-0.8,2.3-1.2,4.6-1.2,7V248.7z"/>
<path fill="#FFFFFF" d="M637.8,242.4h29.4v28.7h-29.4V242.4z"/>
<path fill="#FFFFFF" d="M689.2,242.4h29.4v28.7h-29.4V242.4z"/>
<path fill="#FFFFFF" d="M740.6,242.4H770v28.7h-29.4V242.4z"/>
</svg>
