<?xml version="1.0" encoding="utf-8"?>
<!-- Generator: Adobe Illustrator 17.1.0, SVG Export Plug-In . SVG Version: 6.00 Build 0)  -->
<!DOCTYPE svg PUBLIC "-//W3C//DTD SVG 1.1//EN" "http://www.w3.org/Graphics/SVG/1.1/DTD/svg11.dtd">
<svg version="1.1" xmlns="http://www.w3.org/2000/svg" xmlns:xlink="http://www.w3.org/1999/xlink" x="0px" y="0px"
	 viewBox="0 0 1000 1000" enable-background="new 0 0 1000 1000" xml:space="preserve">
<g id="Wordmark_x2C__Vertical">
	<g id="Wordmark_3_">
		<g>
			<path fill="#4BBB87" d="M2349.428,1724.494h-38.542v-78.705h-72.219v78.705H2200v-182.357h38.667v71.471h72.219v-71.471h38.542
				V1724.494z"/>
			<path fill="#4BBB87" d="M2506.322,1724.494l-13.221-43.406h-66.482l-13.222,43.406h-41.66l64.361-183.105h47.273l64.611,183.105
				H2506.322z M2483.87,1648.657c-12.224-39.331-19.105-61.574-20.643-66.731c-1.54-5.155-2.641-9.23-3.305-12.224
				c-2.744,10.645-10.602,36.964-23.574,78.955H2483.87z"/>
			<path fill="#4BBB87" d="M2641.75,1571.698c-14.552,0-25.82,5.469-33.802,16.402c-7.983,10.935-11.974,26.174-11.974,45.714
				c0,40.662,15.258,60.994,45.776,60.994c12.804,0,28.314-3.2,46.525-9.604v32.43c-14.968,6.237-31.682,9.355-50.142,9.355
				c-26.527,0-46.817-8.045-60.869-24.135c-14.053-16.09-21.08-39.185-21.08-69.288c0-18.959,3.449-35.568,10.353-49.83
				c6.901-14.26,16.818-25.196,29.749-32.804c12.929-7.609,28.084-11.413,45.465-11.413c17.712,0,35.505,4.284,53.385,12.847
				l-12.473,31.432c-6.819-3.243-13.679-6.069-20.581-8.482C2655.177,1572.904,2648.401,1571.698,2641.75,1571.698z"/>
			<path fill="#4BBB87" d="M2864.297,1724.494h-43.905l-47.772-76.834l-16.34,11.725v65.11h-38.667v-182.357h38.667v83.445
				l15.217-21.454l49.394-61.991h42.908l-63.613,80.701L2864.297,1724.494z"/>
			<path fill="#4BBB87" d="M3000,1673.853c0,16.464-5.925,29.437-17.774,38.916c-11.85,9.479-28.335,14.219-49.456,14.219
				c-19.458,0-36.671-3.658-51.639-10.976v-35.922c12.305,5.488,22.72,9.355,31.245,11.6c8.523,2.245,16.319,3.368,23.387,3.368
				c8.482,0,14.987-1.621,19.521-4.865c4.531-3.243,6.798-8.064,6.798-14.469c0-3.574-0.998-6.755-2.994-9.542
				c-1.996-2.785-4.927-5.467-8.793-8.045c-3.867-2.576-11.746-6.693-23.637-12.348c-11.144-5.239-19.501-10.269-25.071-15.093
				c-5.572-4.821-10.022-10.434-13.346-16.839c-3.326-6.402-4.989-13.886-4.989-22.452c0-16.131,5.467-28.813,16.402-38.043
				c10.933-9.23,26.048-13.845,45.34-13.845c9.48,0,18.523,1.123,27.129,3.368c8.606,2.245,17.606,5.406,27.004,9.48l-12.473,30.06
				c-9.729-3.991-17.774-6.777-24.135-8.357c-6.361-1.578-12.619-2.37-18.772-2.37c-7.318,0-12.931,1.705-16.839,5.114
				c-3.91,3.411-5.862,7.858-5.862,13.346c0,3.411,0.79,6.382,2.37,8.918c1.578,2.538,4.095,4.989,7.546,7.359
				c3.449,2.37,11.619,6.632,24.51,12.785c17.045,8.151,28.729,16.32,35.05,24.51C2996.839,1651.921,3000,1661.962,3000,1673.853z"
				/>
		</g>
		<g>
			<path fill="#4BBB87" d="M2293.299,1512.461V1424.9c0-11.142-2.475-19.437-7.422-24.884c-4.948-5.445-12.703-8.17-23.262-8.17
				c-14.054,0-24.26,3.888-30.621,11.662c-6.361,7.776-9.542,20.437-9.542,37.981v70.972H2200v-136.955h18.086l3.368,18.71h1.247
				c4.241-6.735,10.185-11.953,17.836-15.654c7.649-3.699,16.09-5.551,25.321-5.551c16.796,0,29.269,4.075,37.419,12.224
				c8.148,8.151,12.224,20.83,12.224,38.043v89.183H2293.299z"/>
			<path fill="#4BBB87" d="M2468.516,1512.461l-23.449-77.084c-2.163-6.402-5.322-18.501-9.479-36.297h-0.998
				c-3.492,16.215-6.57,28.398-9.23,36.546l-24.572,76.834h-25.445l-37.544-136.955h23.2c8.647,33.677,15.237,59.29,19.77,76.834
				c4.531,17.546,7.213,29.936,8.045,37.17h0.998l1.746-7.733c2.576-11.891,5.071-21.578,7.484-29.062l24.323-77.209h24.447
				l23.574,77.209c0.83,2.912,1.725,6.008,2.682,9.292c0.955,3.286,1.85,6.529,2.682,9.729c0.83,3.202,1.578,6.32,2.245,9.355
				c0.665,3.036,1.164,5.759,1.497,8.17h1.123c0.748-6.318,3.783-19.873,9.105-40.662l19.209-73.093h22.95l-38.043,136.955H2468.516
				z"/>
		</g>
	</g>
</g>
<g id="Wordmark_Horizontal">
	<g id="Wordmark_2_">
		<g>
			<path fill="#4BBB87" d="M2549.456,563.188h-26.692v-54.506h-50.015v54.506h-26.778V436.899h26.778v49.496h50.015v-49.496h26.692
				V563.188z"/>
			<path fill="#4BBB87" d="M2658.11,563.188l-9.156-30.061h-46.041l-9.156,30.061h-28.851l44.573-126.807h32.738l44.745,126.807
				H2658.11z M2642.562,510.668c-8.465-27.238-13.231-42.642-14.296-46.214c-1.066-3.57-1.829-6.392-2.289-8.465
				c-1.9,7.372-7.343,25.599-16.326,54.679H2642.562z"/>
			<path fill="#4BBB87" d="M2751.899,457.371c-10.078,0-17.881,3.787-23.409,11.359c-5.529,7.573-8.293,18.127-8.293,31.659
				c0,28.16,10.567,42.24,31.702,42.24c8.867,0,19.608-2.216,32.22-6.651v22.459c-10.366,4.319-21.941,6.479-34.725,6.479
				c-18.371,0-32.423-5.572-42.154-16.715c-9.733-11.143-14.598-27.137-14.598-47.985c0-13.13,2.389-24.632,7.17-34.509
				c4.779-9.876,11.647-17.449,20.602-22.718c8.954-5.269,19.449-7.904,31.486-7.904c12.266,0,24.589,2.967,36.971,8.897
				l-8.638,21.768c-4.722-2.246-9.473-4.203-14.253-5.874C2761.198,458.206,2756.505,457.371,2751.899,457.371z"/>
			<path fill="#4BBB87" d="M2906.021,563.188h-30.406l-33.084-53.211l-11.316,8.12v45.091h-26.778V436.899h26.778v57.789
				l10.538-14.857l34.207-42.931h29.715l-44.054,55.888L2906.021,563.188z"/>
			<path fill="#4BBB87" d="M3000,528.117c0,11.402-4.103,20.386-12.309,26.951c-8.206,6.565-19.623,9.847-34.25,9.847
				c-13.475,0-25.396-2.534-35.762-7.602v-24.878c8.522,3.801,15.735,6.479,21.638,8.033c5.903,1.555,11.301,2.332,16.197,2.332
				c5.874,0,10.379-1.123,13.519-3.369c3.138-2.246,4.708-5.585,4.708-10.02c0-2.475-0.691-4.678-2.073-6.608
				c-1.382-1.929-3.412-3.786-6.09-5.572c-2.678-1.784-8.135-4.635-16.369-8.552c-7.718-3.628-13.505-7.112-17.363-10.452
				c-3.859-3.339-6.94-7.226-9.243-11.661c-2.304-4.434-3.455-9.617-3.455-15.549c0-11.172,3.786-19.954,11.359-26.346
				c7.572-6.392,18.039-9.588,31.399-9.588c6.565,0,12.828,0.777,18.788,2.332c5.96,1.555,12.193,3.744,18.701,6.565l-8.638,20.818
				c-6.738-2.764-12.309-4.693-16.715-5.788c-4.405-1.093-8.739-1.641-13-1.641c-5.068,0-8.955,1.181-11.661,3.542
				c-2.708,2.362-4.06,5.442-4.06,9.243c0,2.362,0.547,4.42,1.641,6.176c1.093,1.757,2.836,3.455,5.226,5.096
				c2.389,1.641,8.047,4.593,16.974,8.854c11.804,5.645,19.896,11.302,24.273,16.974C2997.811,512.929,3000,519.882,3000,528.117z"
				/>
		</g>
		<g>
			<path fill="#4BBB87" d="M2264.613,563.101v-60.639c0-7.716-1.714-13.461-5.14-17.233c-3.427-3.771-8.797-5.658-16.11-5.658
				c-9.733,0-16.801,2.693-21.207,8.077c-4.406,5.385-6.608,14.153-6.608,26.303v49.151H2200v-94.846h12.525l2.332,12.957h0.864
				c2.937-4.665,7.053-8.278,12.352-10.841c5.298-2.562,11.143-3.844,17.535-3.844c11.632,0,20.27,2.822,25.914,8.465
				c5.643,5.645,8.465,14.426,8.465,26.346v61.762H2264.613z"/>
			<path fill="#4BBB87" d="M2385.957,563.101l-16.24-53.383c-1.498-4.434-3.686-12.813-6.565-25.137h-0.691
				c-2.419,11.229-4.55,19.666-6.392,25.31l-17.017,53.211h-17.622l-26-94.846h16.067c5.989,23.323,10.552,41.061,13.691,53.211
				c3.138,12.151,4.995,20.731,5.572,25.742h0.691l1.209-5.356c1.784-8.235,3.512-14.944,5.183-20.127l16.844-53.47h16.931
				l16.326,53.47c0.575,2.017,1.195,4.161,1.857,6.435c0.661,2.276,1.281,4.522,1.857,6.738c0.575,2.217,1.093,4.377,1.555,6.479
				c0.46,2.103,0.806,3.988,1.036,5.658h0.778c0.518-4.376,2.62-13.763,6.306-28.16l13.303-50.619h15.894l-26.346,94.846H2385.957z"
				/>
		</g>
	</g>
</g>
<g id="Trademark_x2C__Wordmark_Horizontal">
	<polygon id="Trademark_3_" fill="#4BBB87" points="1352.351,1671.898 1352.351,1428.102 1323.096,1457.357 1323.096,1601.197 
		1150,1428.102 1150,1671.898 1243.862,1578.037 1223.139,1557.314 1179.256,1601.197 1179.256,1498.8 	"/>
	<g id="Wordmark_1_">
		<g>
			<path fill="#4BBB87" d="M1501.927,1670.18h-26.545v-54.207h-49.74v54.207h-26.631v-125.596h26.631v49.225h49.74v-49.225h26.545
				V1670.18z"/>
			<path fill="#4BBB87" d="M1609.985,1670.18l-9.106-29.896h-45.788l-9.106,29.896h-28.693l44.328-126.112h32.559l44.5,126.112
				H1609.985z M1594.522,1617.949c-8.419-27.089-13.158-42.408-14.218-45.96c-1.061-3.551-1.819-6.357-2.276-8.419
				c-1.89,7.332-7.302,25.458-16.236,54.379H1594.522z"/>
			<path fill="#4BBB87" d="M1703.26,1564.944c-10.023,0-17.783,3.767-23.281,11.297c-5.498,7.531-8.247,18.027-8.247,31.485
				c0,28.006,10.509,42.009,31.528,42.009c8.819,0,19.501-2.204,32.043-6.615v22.336c-10.309,4.295-21.82,6.443-34.535,6.443
				c-18.27,0-32.245-5.541-41.923-16.623c-9.679-11.082-14.518-26.988-14.518-47.721c0-13.058,2.376-24.497,7.13-34.32
				c4.753-9.822,11.583-17.353,20.489-22.594c8.905-5.24,19.342-7.86,31.313-7.86c12.199,0,24.454,2.95,36.768,8.848l-8.591,21.649
				c-4.697-2.234-9.421-4.18-14.175-5.842C1712.508,1565.775,1707.841,1564.944,1703.26,1564.944z"/>
			<path fill="#4BBB87" d="M1856.537,1670.18h-30.239l-32.902-52.919l-11.254,8.075v44.844h-26.631v-125.596h26.631v57.472
				l10.481-14.776l34.019-42.696h29.552l-43.813,55.582L1856.537,1670.18z"/>
			<path fill="#4BBB87" d="M1950,1635.302c0,11.34-4.081,20.274-12.242,26.803c-8.161,6.529-19.516,9.793-34.062,9.793
				c-13.401,0-25.257-2.52-35.565-7.56v-24.741c8.475,3.78,15.648,6.443,21.52,7.989c5.87,1.546,11.239,2.319,16.108,2.319
				c5.842,0,10.322-1.117,13.444-3.35c3.121-2.234,4.682-5.554,4.682-9.965c0-2.462-0.687-4.652-2.062-6.572
				c-1.375-1.918-3.393-3.765-6.057-5.541c-2.663-1.774-8.09-4.609-16.279-8.505c-7.675-3.608-13.431-7.073-17.267-10.395
				c-3.838-3.321-6.902-7.187-9.192-11.597c-2.291-4.41-3.436-9.564-3.436-15.463c0-11.11,3.765-19.845,11.297-26.202
				c7.53-6.357,17.94-9.536,31.227-9.536c6.529,0,12.757,0.773,18.685,2.319c5.928,1.546,12.126,3.724,18.599,6.529l-8.591,20.704
				c-6.701-2.749-12.242-4.667-16.623-5.756c-4.381-1.087-8.691-1.632-12.929-1.632c-5.04,0-8.906,1.174-11.598,3.522
				c-2.693,2.349-4.038,5.412-4.038,9.192c0,2.349,0.544,4.396,1.632,6.142c1.087,1.748,2.82,3.436,5.197,5.069
				c2.376,1.632,8.003,4.568,16.881,8.805c11.74,5.614,19.787,11.24,24.14,16.881C1947.823,1620.197,1950,1627.112,1950,1635.302z"
				/>
		</g>
		<g>
			<path fill="#4BBB87" d="M1463.269,1524.146v-60.307c0-7.674-1.705-13.387-5.111-17.139c-3.408-3.75-8.749-5.627-16.022-5.627
				c-9.679,0-16.709,2.678-21.09,8.032c-4.381,5.356-6.572,14.075-6.572,26.159v48.881h-15.463v-94.326h12.457l2.319,12.886h0.859
				c2.921-4.639,7.015-8.232,12.285-10.781c5.268-2.547,11.082-3.823,17.439-3.823c11.568,0,20.159,2.807,25.772,8.419
				c5.612,5.614,8.419,14.346,8.419,26.202v61.423H1463.269z"/>
			<path fill="#4BBB87" d="M1583.948,1524.146l-16.151-53.09c-1.49-4.41-3.666-12.743-6.529-24.999h-0.687
				c-2.405,11.168-4.525,19.558-6.357,25.171l-16.924,52.919h-17.525l-25.858-94.326h15.979
				c5.956,23.195,10.494,40.836,13.616,52.919c3.121,12.084,4.968,20.618,5.541,25.6h0.687l1.203-5.326
				c1.774-8.19,3.493-14.862,5.154-20.016l16.752-53.177h16.838l16.236,53.177c0.572,2.005,1.188,4.138,1.847,6.4
				c0.658,2.263,1.274,4.497,1.847,6.701c0.572,2.205,1.087,4.353,1.546,6.443c0.458,2.091,0.802,3.966,1.031,5.627h0.773
				c0.515-4.352,2.605-13.688,6.271-28.006l13.23-50.342h15.807l-26.202,94.326H1583.948z"/>
		</g>
	</g>
</g>
<g id="Trademark_x2C__Wordmark_Vertical">
	<polygon id="Trademark_1_" fill="#4BBB87" points="1782.615,660.518 1782.615,100 1715.353,167.262 1715.353,497.968 1317.385,100 
		1317.385,660.518 1533.184,444.719 1485.54,397.075 1384.647,497.968 1384.647,262.545 	"/>
	<g id="Wordmark">
		<g>
			<path fill="#4BBB87" d="M1404.283,898.549h-22.414v-45.77h-41.998v45.77h-22.486V792.502h22.486v41.563h41.998v-41.563h22.414
				V898.549z"/>
			<path fill="#4BBB87" d="M1495.523,898.549l-7.689-25.242h-38.662l-7.689,25.242h-24.227l37.429-106.483h27.491l37.574,106.483
				H1495.523z M1482.466,854.447c-7.109-22.873-11.11-35.808-12.005-38.807c-0.895-2.998-1.536-5.368-1.922-7.109
				c-1.596,6.191-6.166,21.496-13.709,45.915H1482.466z"/>
			<path fill="#4BBB87" d="M1574.279,809.693c-8.463,0-15.015,3.18-19.657,9.538c-4.642,6.359-6.963,15.221-6.963,26.584
				c0,23.647,8.873,35.47,26.621,35.47c7.446,0,16.466-1.861,27.056-5.585v18.859c-8.704,3.627-18.424,5.44-29.159,5.44
				c-15.426,0-27.226-4.679-35.397-14.036c-8.173-9.357-12.259-22.788-12.259-40.294c0-11.025,2.006-20.684,6.021-28.978
				c4.013-8.293,9.78-14.652,17.3-19.077c7.519-4.425,16.332-6.637,26.439-6.637c10.3,0,20.648,2.491,31.045,7.471l-7.254,18.279
				c-3.966-1.886-7.955-3.529-11.969-4.932C1582.088,810.394,1578.147,809.693,1574.279,809.693z"/>
			<path fill="#4BBB87" d="M1703.699,898.549h-25.533l-27.781-44.682l-9.502,6.818v37.864h-22.486V792.502h22.486v48.527
				l8.849-12.476l28.724-36.05h24.952l-36.993,46.931L1703.699,898.549z"/>
			<path fill="#4BBB87" d="M1782.615,869.1c0,9.575-3.446,17.119-10.336,22.631c-6.891,5.513-16.478,8.269-28.76,8.269
				c-11.316,0-21.326-2.128-30.03-6.383v-20.89c7.156,3.192,13.213,5.44,18.17,6.746c4.956,1.306,9.49,1.958,13.6,1.958
				c4.932,0,8.716-0.943,11.352-2.829c2.635-1.886,3.953-4.69,3.953-8.414c0-2.079-0.58-3.928-1.741-5.549
				c-1.161-1.62-2.865-3.179-5.114-4.679c-2.249-1.498-6.831-3.892-13.745-7.181c-6.481-3.047-11.341-5.972-14.58-8.777
				c-3.24-2.804-5.828-6.068-7.761-9.792c-1.935-3.723-2.901-8.075-2.901-13.056c0-9.381,3.179-16.756,9.538-22.123
				c6.358-5.368,15.148-8.052,26.367-8.052c5.513,0,10.772,0.653,15.777,1.958c5.005,1.306,10.239,3.144,15.704,5.513l-7.254,17.481
				c-5.658-2.321-10.336-3.941-14.036-4.86c-3.699-0.918-7.338-1.378-10.917-1.378c-4.256,0-7.52,0.992-9.792,2.974
				c-2.274,1.984-3.409,4.57-3.409,7.761c0,1.984,0.459,3.712,1.378,5.186c0.918,1.476,2.381,2.901,4.388,4.28
				c2.006,1.378,6.757,3.857,14.253,7.435c9.912,4.74,16.707,9.491,20.383,14.253C1780.777,856.346,1782.615,862.185,1782.615,869.1
				z"/>
		</g>
		<g>
			<path fill="#4BBB87" d="M1371.642,775.245v-50.92c0-6.48-1.44-11.303-4.316-14.471c-2.878-3.167-7.387-4.751-13.528-4.751
				c-8.173,0-14.108,2.261-17.808,6.782c-3.699,4.522-5.549,11.885-5.549,22.087v41.273h-13.057V695.6h10.518l1.958,10.88h0.725
				c2.466-3.917,5.923-6.951,10.373-9.103c4.448-2.151,9.357-3.228,14.725-3.228c9.767,0,17.021,2.37,21.761,7.109
				c4.739,4.74,7.109,12.113,7.109,22.123v51.863H1371.642z"/>
			<path fill="#4BBB87" d="M1473.537,775.245l-13.637-44.827c-1.258-3.723-3.095-10.759-5.513-21.108h-0.58
				c-2.031,9.43-3.821,16.514-5.368,21.253l-14.29,44.682h-14.797L1397.52,695.6h13.492c5.029,19.585,8.861,34.48,11.497,44.682
				c2.635,10.204,4.195,17.409,4.679,21.616h0.58l1.016-4.497c1.498-6.915,2.949-12.549,4.352-16.901l14.144-44.9h14.217
				l13.709,44.9c0.483,1.693,1.003,3.494,1.56,5.404c0.555,1.911,1.076,3.797,1.559,5.658c0.483,1.862,0.918,3.675,1.306,5.44
				c0.387,1.766,0.677,3.349,0.87,4.751h0.653c0.435-3.674,2.2-11.557,5.295-23.647l11.171-42.506h13.347l-22.124,79.644H1473.537z"
				/>
		</g>
	</g>
</g>
<g id="Trademark">
	<polygon id="Trademark_2_" fill="#4BBB87" points="832,900 832,100 736,196 736,668 168,100 168,900 476,592 408,524 264,668 
		264,331.992 	"/>
</g>
</svg>
