<?xml version="1.0" encoding="utf-8"?>
<!-- Generator: Adobe Illustrator 18.0.0, SVG Export Plug-In . SVG Version: 6.00 Build 0)  -->
<!DOCTYPE svg PUBLIC "-//W3C//DTD SVG 1.1//EN" "http://www.w3.org/Graphics/SVG/1.1/DTD/svg11.dtd">
<svg version="1.1" id="Layer_1" xmlns="http://www.w3.org/2000/svg" xmlns:xlink="http://www.w3.org/1999/xlink" x="0px" y="0px"
	 viewBox="0 0 259 46" enable-background="new 0 0 259 46" xml:space="preserve">
<g>
	<path fill="#FFFFFF" d="M66.4,33.1c0.3,0.3,0.6,0.6,0.9,0.9c0.4,0.3,0.8,0.6,1.2,0.8c0.4,0.2,0.9,0.4,1.5,0.6
		c0.5,0.2,1.1,0.2,1.7,0.2c0.4,0,0.7-0.1,1.1-0.2c0.4-0.1,0.7-0.3,1-0.4c0.3-0.2,0.5-0.4,0.7-0.7c0.2-0.3,0.3-0.6,0.3-0.9
		c0-0.8-0.4-1.4-1.1-1.8c-0.7-0.4-1.9-0.8-3.5-1.3c-0.8-0.2-1.5-0.5-2.2-0.8c-0.7-0.4-1.2-0.8-1.7-1.3c-0.5-0.5-0.9-1.1-1.1-1.7
		s-0.4-1.4-0.4-2.1c0-0.9,0.2-1.7,0.5-2.4c0.3-0.8,0.8-1.4,1.4-2c0.6-0.6,1.4-1.1,2.4-1.4c0.9-0.3,2-0.5,3.3-0.5
		c1.1,0,2,0.1,2.8,0.3c0.8,0.2,1.5,0.5,2.1,0.8c0.6,0.3,1,0.6,1.4,0.9c0.4,0.3,0.6,0.6,0.8,0.8l-2.7,3c-0.2-0.2-0.5-0.4-0.8-0.6
		c-0.3-0.2-0.6-0.4-1-0.6c-0.4-0.2-0.8-0.3-1.2-0.5c-0.4-0.1-0.9-0.2-1.4-0.2c-0.3,0-0.7,0.1-1,0.2c-0.3,0.1-0.6,0.2-0.9,0.4
		c-0.3,0.2-0.5,0.4-0.6,0.6c-0.2,0.2-0.2,0.5-0.2,0.8c0,0.7,0.4,1.3,1.1,1.7c0.7,0.4,1.8,0.8,3.1,1.1c0.8,0.2,1.5,0.4,2.2,0.8
		c0.7,0.3,1.4,0.7,2,1.3c0.6,0.5,1,1.2,1.4,1.9c0.4,0.8,0.5,1.7,0.5,2.7c0,0.9-0.2,1.8-0.6,2.6c-0.4,0.8-1,1.5-1.7,2
		c-0.7,0.6-1.5,1-2.5,1.3c-1,0.3-2,0.5-3.1,0.5c-1,0-2-0.1-2.8-0.3c-0.8-0.2-1.6-0.5-2.3-0.8c-0.7-0.3-1.3-0.7-1.8-1.1
		c-0.5-0.4-1-0.8-1.4-1.3L66.4,33.1z"/>
	<path fill="#FFFFFF" d="M83.3,28.2H81v-3.5h2.3v-4.4h4.5v4.4h3.7v3.5h-3.7v5.7c0,0.7,0.1,1.2,0.4,1.6c0.3,0.4,0.7,0.6,1.3,0.6
		c0.5,0,0.8-0.1,1.2-0.2c0.3-0.2,0.6-0.3,0.9-0.5l1.8,2.7c-1.4,1.1-2.9,1.7-4.6,1.7c-1,0-1.9-0.1-2.6-0.4c-0.7-0.3-1.3-0.7-1.7-1.2
		c-0.4-0.5-0.7-1.2-0.9-1.9c-0.2-0.7-0.3-1.6-0.3-2.5V28.2z"/>
	<path fill="#FFFFFF" d="M103.6,37.9c-0.5,0.6-1.1,1-1.9,1.3c-0.8,0.3-1.6,0.5-2.5,0.5c-0.5,0-1.1-0.1-1.6-0.2
		c-0.6-0.1-1.1-0.4-1.6-0.7c-0.5-0.3-0.9-0.8-1.2-1.4c-0.3-0.6-0.5-1.3-0.5-2.2c0-0.8,0.2-1.6,0.5-2.3c0.3-0.7,0.8-1.2,1.4-1.7
		c0.6-0.4,1.3-0.8,2.1-1s1.7-0.3,2.6-0.3c0.5,0,1,0,1.6,0c0.5,0,0.9,0.1,1,0.1v-0.3c0-0.4-0.1-0.7-0.2-0.9c-0.2-0.3-0.4-0.5-0.6-0.7
		c-0.3-0.2-0.6-0.3-0.9-0.4c-0.3-0.1-0.7-0.1-1.1-0.1c-1,0-1.8,0.1-2.5,0.4s-1.2,0.5-1.7,0.8l-1.8-2.7c0.3-0.2,0.7-0.5,1.1-0.7
		c0.4-0.2,0.9-0.4,1.4-0.6c0.5-0.2,1.1-0.3,1.8-0.4c0.7-0.1,1.4-0.2,2.3-0.2c2.2,0,3.8,0.6,4.9,1.8c1.1,1.2,1.6,2.8,1.6,4.8v8.5
		h-4.2L103.6,37.9z M103.6,32.8c-0.1,0-0.3,0-0.6-0.1c-0.3,0-0.6,0-1,0c-1.2,0-2.1,0.2-2.6,0.5c-0.5,0.4-0.8,0.8-0.8,1.5
		c0,1.2,0.7,1.8,2.2,1.8c0.4,0,0.7-0.1,1-0.2c0.3-0.1,0.6-0.3,0.9-0.5c0.3-0.2,0.5-0.5,0.6-0.8c0.2-0.3,0.2-0.7,0.2-1.1V32.8z"/>
	<path fill="#FFFFFF" d="M110.6,24.7h4.3l0.2,1.8c0.4-0.5,0.9-1,1.5-1.4c0.7-0.5,1.5-0.7,2.5-0.7c0.4,0,0.7,0,1,0.1
		c0.3,0,0.6,0.1,0.8,0.2l-0.7,3.9c-0.5-0.1-1-0.2-1.6-0.2c-1.1,0-1.9,0.3-2.6,0.9c-0.7,0.6-1,1.5-1,2.7v7.2h-4.5V24.7z"/>
	<path fill="#FFFFFF" d="M124.7,28.2h-2.3v-3.5h2.3v-4.4h4.5v4.4h3.7v3.5h-3.7v5.7c0,0.7,0.1,1.2,0.4,1.6c0.3,0.4,0.7,0.6,1.3,0.6
		c0.5,0,0.8-0.1,1.2-0.2c0.3-0.2,0.6-0.3,0.9-0.5l1.8,2.7c-1.4,1.1-2.9,1.7-4.6,1.7c-1,0-1.9-0.1-2.6-0.4c-0.7-0.3-1.3-0.7-1.7-1.2
		c-0.4-0.5-0.7-1.2-0.9-1.9c-0.2-0.7-0.3-1.6-0.3-2.5V28.2z"/>
	<path fill="#FFFFFF" d="M136.2,24.7h4.5v8.4c0,0.8,0.2,1.5,0.6,2c0.4,0.5,1,0.7,1.8,0.7c0.5,0,0.9-0.1,1.2-0.3
		c0.4-0.2,0.7-0.4,0.9-0.7s0.4-0.6,0.6-1c0.1-0.4,0.2-0.8,0.2-1.2v-7.8h4.4v14.5h-4.3l-0.1-1.5c-0.5,0.6-1.1,1-1.9,1.4
		c-0.8,0.4-1.6,0.5-2.4,0.5c-1.7,0-3-0.5-4-1.5c-1-1-1.5-2.5-1.5-4.4V24.7z"/>
	<path fill="#FFFFFF" d="M153.1,24.7h4.3c0,0.3,0.1,0.5,0.1,0.8c0,0.3,0,0.5,0.1,0.8c0.5-0.6,1.1-1.1,1.8-1.4
		c0.7-0.3,1.5-0.5,2.3-0.5c1.1,0,2,0.2,2.8,0.6c0.8,0.4,1.5,1,2,1.7c0.5,0.7,0.9,1.5,1.2,2.4c0.3,0.9,0.4,1.8,0.4,2.8
		c0,1.3-0.2,2.5-0.7,3.5c-0.5,1-1,1.8-1.8,2.4c-0.7,0.6-1.5,1.1-2.4,1.4c-0.9,0.3-1.8,0.5-2.7,0.5c-0.7,0-1.3-0.1-1.7-0.2
		c-0.5-0.1-0.9-0.2-1.2-0.4v6.3h-4.4V24.7z M157.5,35.4c0.6,0.4,1.4,0.6,2.6,0.6c1.1,0,2-0.4,2.6-1.1c0.6-0.7,0.9-1.7,0.9-2.9
		c0-0.5-0.1-0.9-0.2-1.4c-0.1-0.5-0.3-0.9-0.5-1.2c-0.2-0.3-0.5-0.6-0.9-0.8c-0.4-0.2-0.9-0.3-1.4-0.3c-0.5,0-0.9,0.1-1.3,0.3
		c-0.4,0.2-0.7,0.4-1,0.7c-0.3,0.3-0.5,0.7-0.6,1.1c-0.1,0.4-0.2,0.8-0.2,1.2V35.4z"/>
	<path fill="#FFFFFF" d="M172.3,34.2c0.3,0.3,0.6,0.7,1,1c0.4,0.3,0.8,0.6,1.2,0.9c0.5,0.3,1,0.5,1.5,0.7c0.6,0.2,1.2,0.2,1.8,0.2
		c1.4,0,2.4-0.3,3.2-0.9c0.8-0.6,1.1-1.5,1.1-2.5c0-1.1-0.4-2-1.3-2.6c-0.9-0.6-2.1-1-3.7-1.4c-0.9-0.2-1.7-0.4-2.4-0.8
		c-0.7-0.3-1.3-0.7-1.9-1.2c-0.5-0.5-0.9-1.1-1.2-1.7c-0.3-0.6-0.4-1.4-0.4-2.2c0-0.8,0.1-1.5,0.4-2.2c0.3-0.7,0.7-1.3,1.3-1.8
		c0.6-0.5,1.3-0.9,2.2-1.2c0.9-0.3,1.9-0.5,3-0.5c1,0,1.9,0.1,2.6,0.3c0.7,0.2,1.4,0.5,1.9,0.8c0.5,0.3,0.9,0.6,1.2,1
		c0.3,0.3,0.5,0.6,0.7,0.8l-2,1.8c-0.1-0.1-0.3-0.3-0.6-0.6c-0.2-0.2-0.6-0.5-0.9-0.7c-0.4-0.2-0.8-0.4-1.3-0.6
		c-0.5-0.2-1.1-0.2-1.7-0.2c-0.7,0-1.2,0.1-1.7,0.3c-0.5,0.2-0.9,0.4-1.2,0.7c-0.3,0.3-0.5,0.6-0.7,0.9c-0.1,0.4-0.2,0.7-0.2,1.1
		c0,0.5,0.1,1,0.3,1.3c0.2,0.4,0.5,0.7,0.9,1c0.4,0.3,0.9,0.5,1.5,0.7c0.6,0.2,1.3,0.4,2.1,0.6c0.8,0.2,1.5,0.4,2.2,0.7
		c0.7,0.3,1.4,0.7,2,1.2c0.6,0.5,1,1.1,1.4,1.9c0.3,0.7,0.5,1.6,0.5,2.7c0,0.9-0.2,1.7-0.6,2.4c-0.4,0.7-0.9,1.4-1.5,1.9
		c-0.7,0.5-1.4,1-2.3,1.3c-0.9,0.3-1.8,0.4-2.9,0.4c-1,0-1.9-0.1-2.6-0.3c-0.8-0.2-1.5-0.5-2.2-0.9s-1.2-0.7-1.7-1.2
		c-0.5-0.4-0.9-0.8-1.2-1.3L172.3,34.2z"/>
	<path fill="#FFFFFF" d="M189.4,27.2h-2.6v-2.3h2.6v-4.7h2.8v4.7h4.2v2.3h-4.2v7.1c0,1.2,0.2,2,0.5,2.4c0.4,0.4,0.9,0.6,1.5,0.6
		c0.5,0,1-0.1,1.3-0.2c0.4-0.2,0.7-0.4,1.1-0.7l1.3,1.7c-0.6,0.6-1.2,1-1.8,1.3c-0.6,0.3-1.4,0.4-2.2,0.4c-1.5,0-2.6-0.4-3.4-1.2
		c-0.7-0.8-1.1-2.1-1.1-3.9V27.2z"/>
	<path fill="#FFFFFF" d="M206.1,39.7c-1.1,0-2.1-0.2-3.1-0.6s-1.7-1-2.4-1.7c-0.7-0.7-1.2-1.5-1.6-2.4c-0.4-0.9-0.6-1.9-0.6-3
		c0-1.1,0.2-2,0.6-3c0.4-0.9,0.9-1.7,1.6-2.4c0.7-0.7,1.5-1.3,2.4-1.7s2-0.6,3.1-0.6c1.1,0,2.1,0.2,3,0.6s1.7,1,2.4,1.7
		c0.7,0.7,1.2,1.5,1.6,2.4c0.4,0.9,0.6,1.9,0.6,3c0,1.1-0.2,2-0.6,3c-0.4,0.9-0.9,1.7-1.6,2.4c-0.7,0.7-1.5,1.3-2.4,1.7
		S207.2,39.7,206.1,39.7z M206.1,37.3c0.7,0,1.4-0.1,2-0.4s1.1-0.7,1.5-1.2c0.4-0.5,0.7-1,0.9-1.7c0.2-0.6,0.3-1.3,0.3-1.9
		c0-0.6-0.1-1.3-0.3-1.9c-0.2-0.6-0.5-1.2-1-1.7c-0.4-0.5-0.9-0.9-1.5-1.2c-0.6-0.3-1.3-0.4-2-0.4c-0.7,0-1.4,0.1-2,0.4
		c-0.6,0.3-1.1,0.7-1.5,1.2c-0.4,0.5-0.7,1-0.9,1.7c-0.2,0.6-0.3,1.3-0.3,1.9c0,0.7,0.1,1.3,0.3,1.9c0.2,0.6,0.5,1.2,1,1.7
		c0.4,0.5,0.9,0.9,1.5,1.2C204.7,37.1,205.4,37.3,206.1,37.3z"/>
	<path fill="#FFFFFF" d="M216.3,39.2v-13c0-0.5,0-0.9,0-1.4h2.7l0.1,2.3c0.2-0.2,0.4-0.5,0.7-0.8c0.3-0.3,0.6-0.6,1-0.8
		c0.4-0.2,0.8-0.5,1.3-0.6c0.5-0.2,1.1-0.3,1.7-0.3c0.3,0,0.6,0,0.9,0.1c0.3,0,0.5,0.1,0.7,0.2l-0.6,2.6c-0.4-0.1-0.8-0.2-1.4-0.2
		c-0.6,0-1.2,0.1-1.7,0.3c-0.5,0.2-0.9,0.5-1.3,0.9c-0.4,0.4-0.7,0.9-0.9,1.4c-0.2,0.5-0.3,1.1-0.3,1.7v7.6H216.3z"/>
	<path fill="#FFFFFF" d="M227.4,39.2V26.3c0-0.5,0-1,0-1.5h2.7l0.1,2.2c0.2-0.2,0.4-0.5,0.7-0.8c0.3-0.3,0.6-0.6,1-0.8
		s0.8-0.5,1.3-0.6c0.5-0.2,1.1-0.2,1.7-0.2c1.1,0,2,0.2,2.8,0.7c0.7,0.4,1.3,1.1,1.7,1.9c0.6-0.7,1.3-1.3,2.1-1.8
		c0.8-0.5,1.9-0.8,3.1-0.8c1.9,0,3.2,0.6,4.1,1.7c0.9,1.1,1.3,2.6,1.3,4.4v8.6h-2.8v-8.4c0-1.3-0.3-2.3-0.8-3
		c-0.5-0.6-1.3-0.9-2.3-0.9c-0.6,0-1.1,0.1-1.6,0.4c-0.5,0.2-0.9,0.6-1.3,0.9c-0.4,0.4-0.6,0.9-0.8,1.4c-0.2,0.5-0.3,1.1-0.3,1.7v8
		h-2.8v-8.4c0-1.3-0.3-2.3-0.8-3c-0.5-0.6-1.3-0.9-2.3-0.9c-0.8,0-1.4,0.2-1.9,0.5c-0.5,0.3-0.9,0.8-1.3,1.3
		c-0.3,0.5-0.5,1.1-0.7,1.8c-0.1,0.7-0.2,1.4-0.2,2v6.7H227.4z"/>
</g>
<g>
	<g>
		<polygon fill="#FFFFFF" points="10,42.7 10,42.7 10,42.7 		"/>
		<path fill="#FFFFFF" d="M10,43c1.6,1.5,3.6,3,6,3h33.9c2.3-0.3,4.5-1.5,6-3H10z"/>
		<path fill="#FFFFFF" d="M52,16c0-1.1-0.9-2-2-2H16c-1.1,0-2,0.9-2,2v24c0,1.1,0.9,2,2,2h34c1.1,0,2-0.9,2-2V16z M16,25
			c4,0,7.7-1.7,10-4c0.8,0.5,1.8,0.8,2.9,0.8c1,0,1.9-0.2,2.6-0.7L29.7,24l-0.3,0.5L27.9,26l-2.2,0.1l-0.2,0l0,0.2l0.1,2l-1.2,0.3
			l0,0l0,0l0.6,1.6l-0.5-1.6l1.2-0.3l0.1,0l0-0.1l0.1-1.9l2.1,0.1l0.1,0l0.1-0.1l1.5-1.2l0.2,0.1l1.4,1l-1.2,0.8L30,27.3l0,0.1
			l-0.3,1.9l-0.5,0.4l-0.1,0l0,0.1l0.4,1.7l-0.9,1.1l1-1.1l0,0l0,0l-0.2-1.7l0.5-0.3l0,0l0-0.1l0.5-1.8l1.5-0.8l2.6,1.9l-3,2.4
			l-0.8,0.6l0.9,0.3l1.9,0.7l-0.8,1l-0.1,0.1l0,0.1l1.3,3.1L33.1,34l1.4-1.1l0.5-0.4l-0.6-0.3l-1.4-0.7l2.2-1.4l1.9,0.8L37,32.3
			l0,0.1l0.1,0l1.2,0.6l-0.4,1.5l0.6-1.5l0-0.1l-0.1,0l-1.1-0.7l0.2-1.4l0-0.1l-0.1-0.1l-1.7-0.8l0.6-0.4l0.8-0.5l-0.8-0.7L32,24.4
			l1-1.4l2,1.4l0.1,0.1l0.1-0.1l2.3-0.8l0.9,2.3l0.1,0.2l0.2-0.1l1.9-1l1.3,0.9l-0.2,2.7l0.4-2.7l0,0l0,0l-1.3-1.1l-0.1-0.1l-0.1,0
			l-1.8,0.9l-0.8-2.3L38,23l-0.3,0.1l-2.4,0.7l-1.8-1.4l2.3-3c0.6-0.1,1.2-0.3,1.7-0.7c0.9,0.7,2,1.2,3.2,1.2c1.2,3.3,3.5,5,7.3,5
			c0.3,0,1.7,0,2,0v15H16V25z"/>
	</g>
</g>
</svg>
