<?xml version="1.0" encoding="utf-8"?>
<!-- Generator: Adobe Illustrator 18.0.0, SVG Export Plug-In . SVG Version: 6.00 Build 0)  -->
<!DOCTYPE svg PUBLIC "-//W3C//DTD SVG 1.1//EN" "http://www.w3.org/Graphics/SVG/1.1/DTD/svg11.dtd">
<svg version="1.1" id="Layer_1" xmlns="http://www.w3.org/2000/svg" xmlns:xlink="http://www.w3.org/1999/xlink" x="0px" y="0px"
	 viewBox="0 0 50 50" enable-background="new 0 0 50 50" xml:space="preserve">
<path fill="#FFFFFF" d="M28.5,15.2c-2.2,0.8-3.6,2.8-3.4,5.1l0.1,0.9l-0.9-0.1c-3.2-0.4-6-1.8-8.3-4.1l-1.2-1.1l-0.3,0.8
	c-0.6,1.9-0.2,3.9,1.1,5.2c0.7,0.7,0.5,0.8-0.7,0.4c-0.4-0.1-0.8-0.2-0.8-0.2c-0.1,0.1,0.3,1.7,0.6,2.4c0.5,0.9,1.4,1.7,2.4,2.3
	l0.9,0.4l-1,0c-1,0-1,0-0.9,0.4c0.3,1.1,1.7,2.4,3.3,2.9l1.1,0.4l-0.9,0.6c-1.4,0.8-3,1.3-4.7,1.3c-0.8,0-1.4,0.1-1.4,0.1
	c0,0.2,2.1,1.2,3.4,1.6c3.7,1.1,8.1,0.7,11.5-1.3c2.4-1.4,4.7-4.2,5.8-6.9c0.6-1.4,1.2-4,1.2-5.3c0-0.8,0.1-0.9,1-1.9
	c0.6-0.6,1.1-1.2,1.2-1.4c0.2-0.3,0.2-0.3-0.7,0c-1.5,0.5-1.7,0.5-1-0.3c0.5-0.6,1.2-1.6,1.2-1.9c0-0.1-0.3,0-0.6,0.2
	c-0.3,0.2-1,0.4-1.5,0.6l-0.9,0.3L33,15.9c-0.5-0.3-1.1-0.7-1.5-0.8C30.6,14.9,29.3,15,28.5,15.2z M0,0h50v50H0V0z"/>
</svg>
