<?xml version="1.0" encoding="utf-8"?>
<!-- Generator: Adobe Illustrator 18.0.0, SVG Export Plug-In . SVG Version: 6.00 Build 0)  -->
<!DOCTYPE svg PUBLIC "-//W3C//DTD SVG 1.1//EN" "http://www.w3.org/Graphics/SVG/1.1/DTD/svg11.dtd">
<svg version="1.1" id="Layer_1" xmlns="http://www.w3.org/2000/svg" xmlns:xlink="http://www.w3.org/1999/xlink" x="0px" y="0px"
	 viewBox="0 0 50 50" enable-background="new 0 0 50 50" xml:space="preserve">
<path fill="#FFFFFF" d="M0,0v50h50V0H0z M15.7,30h-2.2l-1.7-6.8h0L10.1,30H7.9L5.2,20h2.2L9,26.8h0l1.7-6.8h2.1l1.7,6.9h0l1.6-6.9
	h2.2L15.7,30z M28.9,30h-2.2L25,23.2h0L23.3,30h-2.2l-2.6-10h2.2l1.6,6.8h0L24,20H26l1.7,6.9h0l1.6-6.9h2.2L28.9,30z M42.1,30h-2.2
	l-1.7-6.8h0L36.5,30h-2.2l-2.6-10h2.2l1.6,6.8h0l1.7-6.8h2.1l1.7,6.9h0l1.6-6.9h2.2L42.1,30z"/>
</svg>
